<svg xmlns="http://www.w3.org/2000/svg" version="1.1" xmlns:xlink="http://www.w3.org/1999/xlink" xmlns:svgjs="http://svgjs.dev/svgjs" viewBox="0 0 1066 800"><defs><linearGradient x1="50%" y1="0%" x2="50%" y2="100%" id="oooscillate-grad"><stop stop-color="hsl(162, 100%, 58%)" stop-opacity="1" offset="0%"></stop><stop stop-color="hsl(270, 73%, 53%)" stop-opacity="1" offset="100%"></stop></linearGradient></defs><g stroke-width="2" stroke="url(#oooscillate-grad)" fill="none" stroke-linecap="round"><path d="M 0 572 Q 266.5 -100 533 400 Q 799.5 900 1066 572" opacity="0.05"></path><path d="M 0 550 Q 266.5 -100 533 400 Q 799.5 900 1066 550" opacity="0.09"></path><path d="M 0 528 Q 266.5 -100 533 400 Q 799.5 900 1066 528" opacity="0.13"></path><path d="M 0 506 Q 266.5 -100 533 400 Q 799.5 900 1066 506" opacity="0.16"></path><path d="M 0 484 Q 266.5 -100 533 400 Q 799.5 900 1066 484" opacity="0.20"></path><path d="M 0 462 Q 266.5 -100 533 400 Q 799.5 900 1066 462" opacity="0.24"></path><path d="M 0 440 Q 266.5 -100 533 400 Q 799.5 900 1066 440" opacity="0.28"></path><path d="M 0 418 Q 266.5 -100 533 400 Q 799.5 900 1066 418" opacity="0.32"></path><path d="M 0 396 Q 266.5 -100 533 400 Q 799.5 900 1066 396" opacity="0.35"></path><path d="M 0 374 Q 266.5 -100 533 400 Q 799.5 900 1066 374" opacity="0.39"></path><path d="M 0 352 Q 266.5 -100 533 400 Q 799.5 900 1066 352" opacity="0.43"></path><path d="M 0 330 Q 266.5 -100 533 400 Q 799.5 900 1066 330" opacity="0.47"></path><path d="M 0 308 Q 266.5 -100 533 400 Q 799.5 900 1066 308" opacity="0.51"></path><path d="M 0 286 Q 266.5 -100 533 400 Q 799.5 900 1066 286" opacity="0.54"></path><path d="M 0 264 Q 266.5 -100 533 400 Q 799.5 900 1066 264" opacity="0.58"></path><path d="M 0 242 Q 266.5 -100 533 400 Q 799.5 900 1066 242" opacity="0.62"></path><path d="M 0 220 Q 266.5 -100 533 400 Q 799.5 900 1066 220" opacity="0.66"></path><path d="M 0 198 Q 266.5 -100 533 400 Q 799.5 900 1066 198" opacity="0.70"></path><path d="M 0 176 Q 266.5 -100 533 400 Q 799.5 900 1066 176" opacity="0.73"></path><path d="M 0 154 Q 266.5 -100 533 400 Q 799.5 900 1066 154" opacity="0.77"></path><path d="M 0 132 Q 266.5 -100 533 400 Q 799.5 900 1066 132" opacity="0.81"></path><path d="M 0 110 Q 266.5 -100 533 400 Q 799.5 900 1066 110" opacity="0.85"></path><path d="M 0 88 Q 266.5 -100 533 400 Q 799.5 900 1066 88" opacity="0.89"></path><path d="M 0 66 Q 266.5 -100 533 400 Q 799.5 900 1066 66" opacity="0.92"></path><path d="M 0 44 Q 266.5 -100 533 400 Q 799.5 900 1066 44" opacity="0.96"></path></g></svg>